<svg width="39" height="40" viewBox="0 0 39 40" fill="none" xmlns="http://www.w3.org/2000/svg">
<path d="M31 20C31 20.8679 30.2964 21.5714 29.4286 21.5714H23.1429C22.0383 21.5714 21.1429 22.4669 21.1429 23.5714V29.3571C21.1429 30.2645 20.4073 31 19.5 31C18.5927 31 17.8571 30.2645 17.8571 29.3571V23.5714C17.8571 22.4669 16.9617 21.5714 15.8571 21.5714H9.57143C8.70355 21.5714 8 20.8679 8 20C8 19.1321 8.70355 18.4286 9.57143 18.4286H15.8571C16.9617 18.4286 17.8571 17.5331 17.8571 16.4286V10.6429C17.8571 9.73553 18.5927 9 19.5 9C20.4073 9 21.1429 9.73553 21.1429 10.6429V16.4286C21.1429 17.5331 22.0383 18.4286 23.1429 18.4286H29.4286C30.2964 18.4286 31 19.1321 31 20Z" fill="#303030"/>
</svg>
